<?xml version="1.0" standalone="no"?>
<!DOCTYPE svg PUBLIC "-//W3C//DTD SVG 20010904//EN" "http://www.w3.org/TR/2001/REC-SVG-20010904/DTD/svg10.dtd">
<svg version="1.0" xmlns="http://www.w3.org/2000/svg"
  width="180.000000pt" height="180.000000pt" viewBox="0 0 180.000000 180.000000"
  preserveAspectRatio="xMidYMid meet">
  <metadata> Created by potrace 1.10, written by Peter Selinger 2001-2011 </metadata>
  <g transform="translate(0.000000,180.000000) scale(0.100000,-0.100000)"
    stroke="none">
    <path
      d="M645 1463 c-11 -2 -41 -11 -67 -19 -44 -14 -48 -18 -48 -48 0 -77 94
-203 189 -251 53 -27 145 -55 175 -54 19 0 18 1 -4 11 -163 69 -240 130 -286
226 -31 65 -30 66 72 81 173 26 272 -39 327 -213 20 -64 22 -68 25 -38 6 59
-33 164 -80 217 -59 67 -123 95 -213 94 -38 -1 -79 -3 -90 -6z"
      fill="currentColor" />
    <path
      d="M820 1231 c0 -5 15 -19 34 -31 54 -33 141 -133 174 -200 45 -89 60
-178 72 -430 6 -124 15 -229 19 -233 4 -4 11 23 14 60 7 85 59 265 101 358 50
106 103 167 181 206 36 17 63 34 61 37 -10 10 -107 -21 -149 -48 -24 -15 -60
-47 -80 -72 -41 -50 -87 -142 -87 -175 0 -13 -4 -23 -10 -23 -6 0 -10 32 -10
75 0 155 -50 275 -154 373 -61 57 -166 122 -166 103z" />
    <path
      d="M1470 1139 c-63 -10 -92 -23 -134 -60 -40 -34 -66 -77 -66 -106 0
-13 5 -10 19 12 45 74 114 109 211 108 36 0 85 -6 108 -12 41 -11 43 -14 37
-39 -19 -77 -145 -172 -229 -172 -32 0 -56 -10 -56 -22 0 -13 101 -3 168 17
93 28 189 147 180 223 -3 22 -10 27 -58 38 -82 18 -130 21 -180 13z" />
    <path
      d="M175 858 c-73 -40 -58 -112 28 -132 22 -5 28 -12 25 -29 -2 -17 -11
-23 -39 -25 -23 -2 -40 2 -49 13 -12 14 -15 14 -31 -1 -25 -22 -24 -29 6 -42
46 -21 113 -15 140 13 49 48 27 102 -48 119 -22 5 -28 12 -25 29 2 18 9 22 38
21 19 0 41 -2 48 -5 8 -2 19 4 25 14 10 14 9 20 -3 27 -20 13 -90 12 -115 -2z" />
    <path
      d="M344 776 c-27 -27 -34 -42 -34 -73 0 -49 24 -73 71 -73 35 0 79 23
79 41 0 12 -37 12 -45 -1 -10 -16 -52 -12 -59 6 -10 27 -7 29 39 30 105 2 119
104 15 104 -23 0 -42 -10 -66 -34z m94 -18 c2 -12 -6 -19 -33 -24 -45 -8 -54
0 -30 26 22 24 58 23 63 -2z" />
    <path
      d="M511 743 c-7 -38 -15 -78 -18 -90 -4 -19 -1 -23 20 -23 22 0 25 5 31
52 8 58 28 88 59 88 21 0 21 -18 2 -107 -7 -30 -5 -33 17 -33 23 0 26 5 32 48
7 57 29 92 58 92 22 0 22 -17 3 -107 -7 -30 -5 -33 16 -33 23 0 25 6 36 75 7
41 10 82 7 90 -8 20 -54 19 -83 -1 -22 -16 -24 -16 -33 0 -11 20 -47 21 -76 0
-20 -14 -22 -14 -22 0 0 9 -8 16 -18 16 -15 0 -21 -13 -31 -67z" />
    <path
      d="M852 794 c-75 -52 -65 -164 15 -164 67 0 113 45 113 110 0 60 -75 92
-128 54z m84 -48 c15 -62 -72 -116 -91 -56 -3 11 1 33 10 50 12 23 22 30 45
30 23 0 31 -5 36 -24z" />
  </g>
</svg>